<?xml version="1.0" standalone="no"?>
<!DOCTYPE svg PUBLIC "-//W3C//DTD SVG 20010904//EN"
 "http://www.w3.org/TR/2001/REC-SVG-20010904/DTD/svg10.dtd">
<svg version="1.0" xmlns="http://www.w3.org/2000/svg"
 width="2400.000000pt" height="2400.000000pt" viewBox="0 0 2400.000000 2400.000000"
 preserveAspectRatio="xMidYMid meet">
<metadata>
Created by potrace 1.11, written by Peter Selinger 2001-2013
</metadata>
<g transform="translate(0.000000,2400.000000) scale(0.100000,-0.100000)"
fill="#000000" stroke="none">
<path d="M12145 21383 c-53 -5 -108 -26 -185 -68 -41 -23 -106 -59 -145 -80
-142 -76 -201 -108 -230 -125 -16 -10 -59 -33 -95 -53 -36 -19 -153 -83 -260
-142 -107 -59 -229 -126 -270 -148 -41 -22 -106 -58 -143 -79 -38 -21 -70 -38
-72 -38 -2 0 -26 -13 -52 -28 -26 -16 -88 -50 -138 -77 -49 -26 -124 -67 -165
-90 -41 -23 -106 -59 -145 -80 -89 -48 -146 -79 -265 -145 -52 -29 -129 -71
-170 -92 -41 -22 -79 -43 -85 -48 -5 -4 -55 -31 -110 -60 -55 -29 -104 -56
-110 -60 -5 -4 -44 -25 -85 -48 -70 -37 -136 -73 -235 -127 -22 -12 -65 -36
-95 -52 -30 -17 -197 -108 -370 -203 -173 -95 -344 -189 -380 -208 -36 -19
-99 -54 -140 -77 -41 -23 -106 -59 -145 -80 -38 -21 -137 -75 -220 -120 -82
-46 -170 -93 -195 -106 -25 -12 -56 -30 -70 -39 -14 -9 -70 -41 -125 -70 -55
-29 -374 -204 -710 -388 -817 -448 -1327 -728 -1400 -767 -33 -18 -127 -70
-210 -115 -82 -46 -199 -110 -260 -143 -60 -33 -198 -108 -305 -167 -107 -59
-220 -120 -250 -137 -30 -16 -80 -44 -110 -60 -30 -17 -291 -160 -579 -318
-288 -158 -538 -295 -555 -304 -17 -10 -72 -39 -121 -66 -50 -26 -94 -51 -100
-55 -5 -4 -44 -25 -85 -47 -41 -22 -162 -88 -269 -147 -107 -58 -196 -106
-198 -106 -3 0 -18 -9 -35 -21 -16 -12 -62 -34 -103 -49 -359 -139 -671 -403
-892 -756 -159 -256 -292 -642 -318 -929 -4 -38 -9 -78 -11 -90 -13 -62 -5
-414 12 -528 3 -20 7 -47 8 -60 2 -12 6 -35 9 -52 4 -16 9 -46 12 -65 23 -138
97 -356 176 -517 129 -262 307 -485 527 -657 l63 -49 -38 -31 c-174 -141 -367
-366 -462 -536 -165 -297 -256 -569 -295 -885 -3 -22 -8 -63 -11 -90 -8 -66
-9 -369 -1 -420 3 -22 8 -65 11 -95 30 -309 149 -652 319 -920 90 -141 291
-361 410 -449 30 -22 57 -44 60 -49 3 -5 -9 -19 -27 -33 -176 -130 -384 -382
-510 -619 -115 -215 -213 -512 -241 -730 -3 -25 -8 -54 -10 -66 -23 -118 -24
-465 -1 -624 26 -180 51 -297 93 -425 179 -552 554 -967 1072 -1189 93 -40
304 -107 378 -121 15 -3 38 -7 52 -10 14 -3 39 -7 57 -10 18 -2 49 -8 70 -14
21 -6 52 -12 69 -15 16 -3 88 -19 160 -35 98 -22 506 -111 624 -136 8 -2 38
-9 65 -15 28 -6 59 -13 70 -16 45 -9 483 -105 520 -114 22 -6 51 -12 65 -14
14 -2 54 -11 90 -19 36 -9 171 -39 300 -67 225 -49 339 -74 480 -106 36 -8
200 -44 365 -80 165 -36 307 -67 315 -69 8 -2 58 -13 110 -24 52 -11 126 -27
164 -36 38 -9 119 -27 180 -40 61 -12 152 -32 201 -43 50 -12 101 -23 115 -26
14 -3 59 -12 100 -21 41 -9 83 -18 93 -20 10 -2 26 -6 35 -9 9 -3 33 -8 52
-11 19 -3 51 -10 70 -15 31 -9 406 -91 470 -104 14 -3 66 -14 115 -25 246 -54
348 -76 555 -122 124 -28 243 -54 265 -59 22 -5 51 -11 65 -14 43 -10 130 -27
135 -27 2 0 19 -5 37 -10 18 -5 47 -12 63 -15 17 -3 109 -23 205 -44 96 -22
186 -41 200 -44 27 -5 254 -55 283 -62 9 -2 25 -6 35 -8 14 -4 269 -59 322
-71 9 -2 159 -35 335 -73 702 -155 821 -181 854 -187 19 -3 37 -8 41 -10 4 -2
22 -7 41 -10 19 -3 62 -12 95 -20 34 -8 73 -16 85 -19 13 -2 170 -36 349 -76
179 -40 336 -74 350 -77 14 -2 50 -10 80 -18 30 -7 73 -16 95 -21 22 -4 42 -8
45 -9 5 -1 84 -19 135 -30 11 -2 115 -25 230 -50 116 -26 291 -65 390 -86 99
-22 189 -42 200 -44 98 -23 244 -50 260 -49 95 6 155 34 540 254 22 12 130 73
240 135 110 62 216 121 235 132 99 56 601 339 640 360 25 14 59 33 75 43 17
10 51 29 78 44 60 33 99 55 332 186 105 59 210 118 235 132 25 14 167 94 315
178 149 84 299 168 335 188 36 19 82 46 102 59 21 13 40 23 43 23 3 0 22 11
43 24 20 12 64 37 97 55 33 18 74 40 90 50 17 10 50 29 75 43 112 63 280 158
335 188 72 40 113 63 163 92 20 12 55 31 77 43 91 50 141 78 150 85 6 4 35 21
65 37 45 24 264 147 650 365 66 38 268 151 320 180 56 31 113 63 165 93 231
131 345 195 350 195 3 0 18 8 33 19 22 15 313 180 582 329 25 14 62 36 82 49
21 12 40 23 44 23 3 0 51 27 107 59 56 32 176 101 267 151 278 156 272 153
440 247 63 36 138 78 165 93 28 15 90 50 139 79 49 28 90 51 92 51 3 0 245
137 264 150 8 6 22 13 30 17 8 4 83 45 165 92 83 46 166 93 185 104 19 11 287
161 595 335 308 173 585 329 615 345 139 76 205 134 237 207 27 64 31 80 29
150 -3 132 -75 242 -195 299 -47 22 -70 26 -141 26 -90 0 -115 -9 -275 -100
-50 -28 -1171 -660 -1255 -707 -25 -14 -169 -95 -320 -180 -151 -85 -302 -170
-335 -188 -33 -18 -73 -41 -90 -50 -16 -10 -100 -57 -185 -105 -85 -48 -200
-113 -255 -144 -55 -32 -107 -60 -115 -64 -8 -4 -31 -16 -50 -28 -19 -11 -80
-46 -135 -76 -55 -31 -133 -76 -174 -100 -40 -23 -75 -43 -77 -43 -2 0 -70
-38 -152 -83 -81 -46 -167 -95 -192 -109 -25 -14 -61 -34 -80 -45 -19 -11 -71
-40 -115 -65 -44 -25 -148 -84 -232 -132 -84 -47 -157 -86 -163 -86 -5 0 -10
-4 -10 -10 0 -5 -4 -10 -9 -10 -8 0 -149 -78 -426 -235 -27 -16 -99 -56 -160
-90 -60 -34 -184 -103 -275 -155 -91 -51 -190 -106 -220 -123 -30 -16 -59 -33
-65 -37 -5 -4 -37 -22 -70 -40 -33 -18 -163 -92 -290 -163 -126 -71 -270 -152
-319 -179 -49 -27 -106 -61 -127 -74 -21 -13 -41 -24 -44 -24 -6 0 -256 -141
-285 -160 -8 -6 -22 -13 -30 -17 -8 -4 -62 -34 -120 -66 -58 -33 -125 -71
-150 -85 -25 -14 -110 -62 -190 -107 -80 -45 -170 -96 -200 -112 -30 -17 -176
-99 -325 -183 -148 -84 -290 -164 -315 -178 -25 -14 -189 -106 -365 -205 -176
-99 -340 -191 -365 -205 -78 -44 -101 -57 -270 -152 -91 -51 -190 -107 -220
-123 -30 -16 -59 -33 -65 -37 -5 -4 -30 -18 -55 -32 -25 -14 -118 -66 -208
-117 -156 -87 -165 -91 -200 -82 -35 9 -49 13 -119 26 -16 3 -36 8 -45 11 -10
3 -30 7 -45 10 -16 3 -56 11 -91 19 -34 8 -77 17 -95 20 -17 3 -48 10 -67 15
-19 5 -46 11 -60 14 -32 7 -109 24 -135 30 -11 2 -126 27 -255 55 -129 28
-253 55 -275 61 -72 17 -532 118 -575 126 -14 3 -50 11 -80 19 -30 7 -68 16
-85 18 -16 3 -50 10 -75 16 -48 11 -540 120 -577 127 -12 2 -114 25 -225 50
-112 25 -221 49 -243 54 -22 4 -72 15 -110 23 -39 9 -82 18 -95 21 -68 14
-219 47 -340 75 -74 16 -151 33 -170 36 -19 3 -43 8 -52 11 -9 3 -25 6 -35 9
-27 5 -841 184 -888 195 -35 8 -61 13 -115 25 -8 2 -37 9 -65 15 -27 6 -61 14
-75 16 -14 3 -53 11 -86 19 -34 8 -73 16 -85 19 -13 2 -64 13 -114 25 -49 11
-101 22 -115 25 -14 2 -54 11 -90 20 -36 8 -83 18 -105 22 -22 3 -43 8 -46 9
-5 3 -155 37 -229 51 -14 3 -61 14 -105 24 -44 10 -145 33 -225 50 -140 30
-259 56 -385 85 -33 8 -78 17 -100 22 -51 9 -45 8 -80 16 -16 4 -39 9 -50 12
-11 2 -63 13 -115 25 -52 11 -106 23 -120 26 -14 2 -52 11 -85 19 -33 8 -75
17 -94 20 -19 3 -37 7 -40 9 -3 2 -22 7 -41 10 -19 3 -66 12 -105 21 -38 9
-77 18 -85 20 -8 2 -161 35 -340 75 -179 39 -334 74 -345 76 -38 7 -61 13
-315 69 -140 31 -266 59 -280 61 -14 3 -45 10 -70 15 -53 12 -53 13 -150 34
-41 9 -82 18 -90 20 -8 1 -71 15 -140 30 -69 15 -132 28 -140 30 -30 7 -386
86 -425 95 -22 4 -74 15 -115 25 -41 9 -86 19 -100 21 -14 3 -72 16 -130 29
-58 13 -116 26 -130 29 -14 2 -47 10 -75 16 -65 15 -82 19 -125 25 -162 24
-347 94 -497 186 -74 47 -267 221 -308 280 -138 195 -231 420 -261 634 -3 28
-9 59 -11 70 -8 38 -10 350 -3 410 28 221 69 370 150 541 179 382 508 645 839
671 52 4 98 -3 222 -31 85 -19 171 -38 190 -41 19 -3 50 -10 69 -16 33 -9 517
-115 570 -125 14 -3 33 -7 42 -10 10 -3 30 -7 45 -10 16 -2 64 -13 108 -24 44
-10 96 -22 115 -25 19 -3 62 -13 95 -20 33 -8 186 -42 340 -75 249 -54 365
-80 500 -110 118 -27 223 -50 245 -54 24 -4 378 -83 410 -91 8 -2 69 -15 135
-30 66 -14 163 -35 215 -46 52 -11 103 -22 113 -24 10 -2 26 -6 35 -9 9 -3 31
-8 47 -10 17 -3 100 -21 185 -40 85 -19 166 -37 180 -40 24 -4 193 -42 235
-52 11 -3 41 -9 66 -14 25 -5 65 -13 90 -19 111 -26 236 -53 256 -57 12 -2
124 -27 250 -55 125 -28 235 -52 244 -54 9 -2 61 -13 115 -25 55 -12 110 -24
124 -27 14 -3 30 -6 35 -7 6 -2 21 -6 35 -9 14 -3 151 -33 305 -67 154 -33
298 -65 320 -70 53 -12 313 -69 345 -75 24 -4 117 -25 205 -45 43 -10 269 -60
295 -65 8 -2 89 -20 180 -40 91 -20 176 -39 190 -41 14 -3 33 -7 42 -10 9 -3
27 -7 40 -9 13 -3 104 -23 203 -44 99 -22 326 -72 505 -111 179 -39 343 -75
365 -80 123 -28 238 -53 385 -85 91 -20 224 -49 296 -65 73 -16 147 -32 165
-35 19 -3 48 -10 64 -15 17 -5 44 -12 60 -14 17 -3 172 -37 345 -75 263 -58
443 -98 529 -116 23 -5 155 -34 226 -50 240 -54 265 -57 354 -41 18 4 52 17
75 30 22 13 100 56 171 96 72 40 155 87 185 103 30 16 60 33 65 37 6 4 30 19
55 32 25 14 139 78 254 143 115 64 226 126 245 137 20 11 52 29 71 40 40 23
347 195 400 224 19 11 46 27 60 35 27 17 348 197 445 249 33 18 65 36 70 40 6
4 35 21 65 38 30 16 136 75 234 131 98 56 183 101 187 101 5 0 9 5 9 10 0 6 4
10 10 10 5 0 99 50 207 112 306 172 812 457 873 490 30 17 60 34 65 38 6 4 37
22 70 40 33 18 220 123 415 233 195 110 375 211 400 225 25 14 74 42 110 62
36 20 85 48 110 62 88 49 307 172 450 253 156 88 209 118 310 173 36 19 72 41
81 48 8 8 18 14 21 14 3 0 35 16 70 36 34 20 88 50 118 67 30 16 105 58 165
92 61 35 128 73 150 85 22 12 75 42 118 67 42 24 99 55 125 70 67 37 109 60
271 152 78 44 147 81 152 81 5 0 9 3 9 8 0 4 14 13 30 20 17 8 67 35 113 61
45 26 102 59 127 73 25 14 155 87 290 163 135 76 265 149 290 163 25 14 275
154 555 312 281 158 536 302 569 320 32 17 79 44 105 59 25 15 53 30 61 34 8
4 31 17 50 28 19 12 64 37 100 57 36 19 82 46 102 59 21 13 40 23 42 23 5 0
169 92 196 110 8 5 31 18 50 29 54 30 107 87 137 149 24 49 28 70 28 142 0 73
-4 93 -28 142 -30 62 -93 130 -142 156 -42 21 -123 42 -168 42 -50 0 -141 -32
-214 -74 -32 -18 -110 -63 -173 -98 -63 -36 -225 -127 -360 -203 -135 -76
-263 -148 -285 -160 -22 -12 -107 -60 -190 -107 -82 -47 -170 -96 -195 -110
-139 -77 -267 -151 -277 -160 -7 -6 -13 -7 -13 -3 0 5 -8 1 -17 -7 -10 -8 -49
-32 -88 -53 -90 -49 -124 -68 -215 -120 -41 -23 -91 -51 -110 -62 -19 -11
-181 -102 -360 -203 -179 -100 -345 -194 -370 -208 -47 -26 -160 -90 -220
-125 -19 -11 -60 -33 -90 -50 -30 -16 -104 -57 -165 -92 -60 -34 -130 -73
-155 -87 -25 -14 -61 -35 -80 -47 -19 -11 -42 -24 -50 -28 -8 -4 -37 -19 -63
-35 -27 -15 -76 -43 -110 -62 -34 -18 -132 -73 -217 -121 -85 -48 -175 -99
-200 -113 -25 -14 -94 -53 -155 -87 -60 -34 -132 -75 -160 -90 -27 -16 -97
-55 -155 -88 -58 -32 -127 -71 -155 -87 -27 -15 -171 -96 -320 -180 -148 -84
-295 -166 -325 -183 -30 -16 -138 -77 -239 -134 -101 -58 -207 -117 -235 -132
-28 -16 -118 -66 -201 -113 -82 -47 -175 -99 -205 -116 -30 -16 -136 -76 -235
-132 -99 -56 -200 -113 -225 -127 -332 -185 -409 -228 -430 -242 -14 -8 -43
-25 -65 -37 -22 -11 -56 -30 -75 -41 -222 -126 -359 -204 -429 -242 -46 -25
-100 -55 -120 -67 -50 -28 -359 -203 -396 -224 -16 -9 -61 -34 -100 -56 -38
-21 -78 -43 -87 -49 -9 -5 -34 -20 -55 -31 -31 -17 -345 -194 -563 -316 -25
-14 -123 -69 -218 -123 l-172 -97 -163 37 c-89 20 -173 38 -187 41 -14 2 -43
9 -65 14 -49 12 -299 67 -338 74 -15 2 -35 7 -45 10 -9 3 -29 8 -44 11 -46 9
-68 13 -188 41 -63 14 -124 28 -135 30 -65 13 -88 17 -160 34 -44 11 -93 21
-110 24 -16 3 -109 23 -206 45 -97 22 -187 42 -200 44 -13 3 -136 30 -274 60
-387 86 -578 128 -605 133 -14 3 -41 9 -60 14 -29 7 -105 24 -390 85 -60 13
-677 149 -725 159 -184 42 -796 176 -829 181 -17 3 -44 10 -61 15 -16 5 -64
16 -105 24 -41 9 -118 25 -170 37 -52 11 -104 22 -115 24 -27 6 -450 99 -595
132 -63 14 -131 29 -150 33 -19 4 -71 15 -115 25 -44 9 -87 18 -95 20 -8 2
-55 12 -105 24 -49 11 -101 22 -115 25 -14 3 -34 7 -45 10 -11 2 -63 14 -115
25 -52 12 -147 32 -210 46 -63 14 -124 27 -135 29 -11 2 -114 25 -230 51 -115
26 -217 48 -225 50 -8 2 -58 13 -110 24 -52 11 -138 30 -190 41 -52 12 -104
23 -115 25 -11 3 -110 25 -220 49 -110 25 -211 47 -225 50 -14 3 -88 19 -165
36 -77 16 -149 32 -160 34 -11 2 -40 9 -65 15 -74 17 -233 53 -255 57 -17 3
-102 22 -180 39 -11 3 -49 11 -85 19 -36 8 -99 22 -140 31 -41 9 -84 18 -95
21 -11 2 -113 24 -225 49 -113 25 -218 48 -235 51 -16 2 -38 7 -47 10 -9 3
-25 7 -35 9 -10 2 -52 11 -93 20 -41 9 -84 18 -94 21 -11 2 -72 15 -136 29
-64 14 -125 27 -136 29 -10 2 -47 11 -80 20 -34 9 -73 16 -86 16 -39 0 -216
47 -293 78 -243 97 -433 248 -571 453 -125 187 -194 378 -230 639 -10 71 -12
348 -3 420 45 373 188 688 414 915 181 182 400 288 600 289 33 1 74 -2 90 -6
17 -3 91 -20 165 -37 74 -17 149 -34 165 -37 17 -3 46 -9 65 -14 19 -5 152
-34 295 -65 143 -31 287 -63 320 -70 33 -7 215 -47 405 -89 190 -42 354 -78
365 -80 11 -3 133 -29 270 -60 138 -30 417 -91 620 -136 204 -44 388 -85 410
-90 22 -5 146 -32 275 -60 129 -28 251 -55 270 -60 19 -6 112 -26 205 -46 94
-20 199 -42 235 -50 36 -8 78 -17 94 -20 16 -2 32 -7 36 -9 4 -2 21 -7 39 -10
18 -3 135 -28 259 -56 125 -27 236 -51 247 -54 11 -2 29 -6 40 -9 346 -81 406
-82 522 -9 59 36 115 107 137 170 24 70 16 187 -16 253 -34 68 -87 124 -149
156 -39 19 -311 87 -442 109 -18 3 -48 10 -67 15 -47 12 -183 42 -360 80 -196
42 -189 40 -195 41 -2 0 -19 5 -37 10 -18 5 -46 12 -63 14 -16 3 -66 14 -110
25 -44 10 -93 21 -110 24 -16 3 -172 37 -345 75 -173 38 -326 72 -340 75 -14
3 -79 17 -145 31 -66 15 -129 28 -140 31 -40 8 -661 145 -700 154 -22 5 -62
14 -90 20 -63 13 -54 11 -275 60 -102 23 -207 46 -235 51 -27 6 -66 15 -85 19
-19 4 -109 24 -200 44 -91 20 -183 40 -205 46 -48 11 -335 74 -395 86 -14 3
-41 9 -60 14 -19 5 -50 12 -67 15 -18 3 -63 12 -100 21 -91 21 -85 20 -193 43
-52 11 -135 29 -184 41 -50 11 -106 23 -125 26 -20 3 -47 7 -61 10 -14 2 -37
7 -52 9 -49 9 -206 64 -273 95 -410 192 -668 578 -722 1080 -10 87 -9 327 1
423 9 90 66 325 94 389 10 24 25 59 32 78 30 78 109 214 175 300 146 190 348
336 536 385 40 11 59 10 131 -6 266 -58 325 -71 348 -75 14 -2 36 -7 50 -10
14 -3 33 -8 44 -10 58 -11 497 -106 531 -114 22 -6 51 -12 65 -14 14 -2 77
-16 140 -30 63 -14 171 -37 240 -51 69 -15 188 -40 265 -57 77 -16 151 -32
165 -34 14 -3 41 -9 60 -14 19 -5 46 -11 60 -14 14 -2 81 -16 150 -31 69 -15
132 -28 140 -30 8 -2 60 -13 115 -25 135 -30 184 -40 225 -46 19 -3 38 -8 41
-10 6 -4 114 -27 176 -39 48 -8 67 -13 108 -23 22 -6 54 -13 70 -15 17 -3 53
-10 80 -17 28 -7 64 -14 80 -16 17 -3 44 -9 60 -14 17 -5 45 -12 64 -15 19 -3
98 -20 175 -36 150 -33 211 -46 481 -103 94 -20 188 -41 210 -46 45 -11 882
-190 1075 -230 47 -10 57 -12 130 -29 25 -5 57 -12 73 -15 15 -2 35 -7 45 -10
9 -3 28 -7 42 -10 21 -4 226 -47 293 -61 10 -2 26 -6 35 -9 9 -3 33 -8 52 -11
19 -3 85 -17 145 -30 61 -14 121 -26 135 -29 14 -2 66 -13 115 -25 50 -11 101
-22 115 -25 14 -2 45 -9 70 -15 25 -5 56 -12 70 -15 39 -8 363 -77 380 -81 8
-2 60 -13 115 -25 55 -11 109 -23 120 -25 34 -8 1326 -285 1349 -289 12 -2 62
-13 111 -25 50 -11 104 -22 120 -25 35 -7 54 -11 115 -25 25 -5 56 -12 70 -15
77 -15 320 -68 350 -76 19 -5 49 -11 65 -14 17 -2 71 -13 120 -24 140 -31 229
-50 255 -56 14 -2 45 -9 70 -15 25 -5 61 -13 80 -16 19 -3 53 -11 75 -16 43
-12 61 -16 115 -25 19 -3 49 -10 65 -14 17 -5 44 -11 60 -14 17 -2 53 -9 80
-16 28 -6 102 -23 165 -36 63 -14 124 -27 135 -30 11 -3 50 -8 86 -11 90 -7
130 7 343 127 97 55 179 100 181 100 3 0 27 13 53 30 27 16 72 42 99 57 87 49
327 184 343 194 8 5 51 29 95 53 44 24 163 91 265 148 102 58 212 120 245 138
85 47 112 62 182 104 34 20 63 36 66 36 2 0 60 32 128 71 68 39 147 84 174 99
28 15 68 38 90 50 48 28 277 157 505 285 157 88 195 109 275 155 68 39 101 57
180 100 44 23 85 47 92 52 7 5 27 17 45 27 39 20 518 290 568 320 19 11 42 24
50 28 8 4 98 54 200 112 102 57 194 109 205 115 11 6 132 74 268 151 136 77
265 149 285 161 20 11 57 32 82 45 25 14 173 98 330 186 336 189 313 176 605
340 282 159 276 156 510 286 105 59 197 111 205 116 8 6 38 22 65 37 28 14 75
41 105 59 45 27 738 417 925 521 68 37 91 50 225 126 63 36 140 79 170 96 30
16 84 47 120 68 36 20 83 47 105 59 22 12 200 112 395 222 195 110 375 211
400 225 25 14 63 35 85 48 94 53 193 109 235 132 25 14 81 45 124 69 99 55
160 114 194 187 23 48 27 70 27 142 -1 71 -5 94 -28 141 -30 62 -93 126 -154
157 -21 11 -131 41 -243 65 -211 47 -698 153 -737 162 -13 3 -31 7 -40 9 -50
11 -441 97 -458 100 -11 3 -60 13 -110 25 -49 11 -101 22 -115 25 -30 6 -127
27 -430 95 -124 27 -236 52 -250 54 -14 3 -43 10 -65 15 -22 6 -53 13 -70 16
-16 2 -61 12 -100 21 -38 9 -81 18 -95 21 -14 3 -45 10 -70 15 -25 6 -54 13
-65 15 -46 9 -170 36 -459 100 -87 20 -168 37 -180 40 -11 2 -91 19 -176 38
-85 19 -166 37 -180 40 -14 2 -86 18 -160 35 -191 43 -372 82 -395 87 -11 2
-31 6 -45 9 -14 4 -36 8 -49 11 -12 3 -51 11 -85 19 -33 8 -72 16 -86 19 -14
3 -77 17 -140 31 -63 14 -156 34 -207 45 -50 11 -172 37 -270 59 -98 22 -194
43 -213 47 -19 4 -39 9 -45 10 -5 2 -23 6 -40 9 -16 3 -59 13 -95 21 -36 8
-108 24 -160 35 -115 24 -94 20 -265 58 -77 17 -149 33 -160 35 -31 7 -342 75
-415 92 -36 8 -76 17 -90 19 -14 2 -46 9 -71 15 -26 6 -53 13 -60 14 -8 2 -25
6 -39 9 -14 3 -131 29 -260 57 -244 53 -255 55 -408 90 -51 12 -105 24 -120
26 -15 3 -106 23 -202 44 -96 21 -186 41 -200 44 -48 9 -215 46 -255 56 -49
12 -630 140 -665 146 -14 3 -74 16 -135 30 -60 13 -123 27 -139 30 -16 3 -32
7 -35 9 -4 2 -26 6 -51 10 -25 4 -47 8 -50 10 -5 3 -343 78 -410 91 -14 3 -63
14 -110 24 -271 61 -686 151 -709 153 -14 1 -39 1 -56 0z"/>
<path d="M22688 15584 c-2 -1 -19 -6 -38 -9 -19 -3 -100 -42 -180 -87 -80 -45
-170 -95 -200 -111 -30 -17 -72 -41 -92 -54 -21 -13 -40 -23 -42 -23 -3 0 -32
-16 -64 -35 -33 -19 -89 -51 -124 -70 -162 -90 -244 -137 -258 -145 -8 -6 -47
-28 -87 -50 -39 -22 -87 -48 -105 -58 -18 -11 -199 -113 -403 -227 -203 -114
-379 -214 -390 -220 -11 -7 -45 -26 -75 -43 -47 -25 -143 -79 -400 -224 -185
-104 -1252 -705 -1277 -719 -18 -10 -63 -35 -100 -55 -37 -20 -72 -40 -78 -44
-5 -4 -30 -19 -55 -32 -46 -26 -305 -171 -1200 -675 -283 -159 -537 -302 -565
-317 -27 -16 -99 -56 -160 -91 -60 -34 -218 -123 -350 -197 -132 -74 -278
-157 -325 -183 -47 -26 -103 -58 -125 -70 -22 -13 -107 -61 -190 -107 -149
-84 -368 -207 -1270 -715 -88 -50 -187 -105 -220 -123 -33 -18 -77 -44 -97
-57 -21 -12 -39 -23 -42 -23 -2 0 -80 -43 -172 -96 -93 -53 -189 -107 -214
-120 -25 -13 -52 -29 -60 -34 -20 -13 -191 -110 -194 -110 -3 0 -245 -136
-266 -150 -8 -5 -30 -17 -48 -26 -35 -18 -57 -14 -457 76 -44 10 -114 25 -155
34 -41 9 -115 26 -165 37 -49 11 -101 23 -115 25 -14 3 -74 16 -135 30 -60 13
-119 26 -130 28 -32 6 -163 36 -250 56 -44 10 -93 21 -110 24 -16 3 -39 7 -50
10 -17 4 -131 29 -185 41 -8 1 -80 17 -160 35 -80 17 -152 33 -160 35 -8 2
-46 11 -85 20 -130 30 -226 24 -312 -20 -47 -24 -112 -95 -141 -154 -23 -48
-27 -68 -27 -141 1 -72 5 -94 28 -140 52 -106 120 -158 245 -190 72 -19 556
-126 612 -136 14 -3 33 -7 42 -10 10 -3 30 -7 44 -10 14 -3 54 -11 88 -19 33
-8 75 -17 91 -20 17 -3 35 -7 40 -9 9 -3 62 -14 95 -20 8 -2 26 -6 40 -9 25
-6 287 -64 325 -71 11 -3 61 -13 110 -25 50 -11 101 -22 115 -25 67 -13 181
-38 235 -51 75 -18 381 -86 415 -91 14 -3 40 -9 59 -14 50 -13 150 -5 201 18
25 11 97 49 160 84 63 36 140 79 170 96 30 16 84 47 120 67 68 39 84 48 270
153 63 35 164 92 223 126 60 33 125 70 145 81 21 12 62 35 92 52 30 17 111 62
180 100 287 161 577 324 600 338 14 8 102 58 195 110 94 53 177 100 185 105 8
5 85 48 170 96 348 194 429 239 517 291 50 29 94 53 97 53 4 0 32 16 62 35 30
19 57 35 59 35 3 0 67 35 143 78 194 111 481 274 517 292 17 9 102 57 190 107
88 49 180 101 205 115 25 14 85 48 134 77 49 28 90 51 92 51 3 0 174 97 194
110 8 6 22 13 30 17 8 4 57 31 109 60 51 29 95 53 97 53 3 0 21 11 42 23 20
13 64 39 97 57 67 37 199 112 671 378 177 99 339 190 360 202 22 12 46 25 54
31 14 8 129 73 270 152 30 16 156 87 280 157 124 70 246 139 272 153 26 15 83
46 125 70 43 25 94 53 113 64 19 11 69 39 110 62 41 23 82 46 90 51 17 10 131
74 202 113 26 15 83 46 125 70 102 58 123 70 358 202 110 62 218 123 240 135
22 12 96 54 165 93 69 39 172 97 230 130 58 32 128 72 155 87 28 15 133 74
235 132 102 58 217 122 255 143 175 95 216 130 263 225 23 47 27 68 27 140 0
73 -4 93 -28 141 -43 89 -134 166 -217 184 -37 8 -127 15 -132 9z"/>
<path d="M8650 11124 c0 -970 3 -1764 7 -1764 3 0 14 6 22 13 15 13 473 299
516 323 11 6 64 39 118 73 54 34 104 64 112 67 14 6 28 -7 140 -132 39 -42 75
-82 80 -88 11 -11 273 -298 429 -471 137 -150 209 -229 223 -243 11 -11 13
334 13 1847 0 1763 -1 1860 -17 1864 -19 6 -83 17 -123 22 -14 2 -38 6 -55 9
-67 12 -1362 228 -1390 232 -16 2 -40 6 -52 8 l-23 5 0 -1765z"/>
</g>
</svg>
